<?xml version="1.0" encoding="UTF-8" standalone="no"?>
<!DOCTYPE svg PUBLIC "-//W3C//DTD SVG 1.1//EN"
 "http://www.w3.org/Graphics/SVG/1.1/DTD/svg11.dtd">
<!-- Generated by graphviz version 2.38.0 (20140413.2041)
 -->
<!-- Title: G Pages: 1 -->
<svg width="306pt" height="130pt"
 viewBox="0.00 0.00 306.00 130.00" xmlns="http://www.w3.org/2000/svg" xmlns:xlink="http://www.w3.org/1999/xlink">
<g id="graph0" class="graph" transform="scale(1 1) rotate(0) translate(4 126)">
<title>G</title>
<polygon fill="white" stroke="none" points="-4,4 -4,-126 302,-126 302,4 -4,4"/>
<!-- q1 -->
<g id="node1" class="node"><title>q1</title>
<ellipse fill="yellow" stroke="black" cx="90" cy="-104" rx="27" ry="18"/>
<text text-anchor="middle" x="90" y="-99.8" font-family="Times,serif" font-size="14.00">q1</text>
</g>
<!-- q1&#45;&gt;q1 -->
<g id="edge5" class="edge"><title>q1&#45;&gt;q1</title>
<path fill="none" stroke="black" d="M114.532,-111.752C125.508,-112.49 135,-109.906 135,-104 135,-100.032 130.715,-97.5632 124.574,-96.5944"/>
<polygon fill="black" stroke="black" points="124.647,-93.0949 114.532,-96.248 124.406,-100.091 124.647,-93.0949"/>
<text text-anchor="middle" x="153.939" y="-99.8" font-family="Times,serif" font-size="14.00">&quot;push&quot;</text>
</g>
<!-- q2 -->
<g id="node2" class="node"><title>q2</title>
<ellipse fill="yellow" stroke="black" cx="157" cy="-18" rx="27" ry="18"/>
<text text-anchor="middle" x="157" y="-13.8" font-family="Times,serif" font-size="14.00">q2</text>
</g>
<!-- q1&#45;&gt;q2 -->
<g id="edge1" class="edge"><title>q1&#45;&gt;q2</title>
<path fill="none" stroke="black" d="M109.291,-91.1466C118.003,-85.061 127.908,-77.0283 135,-68 140.265,-61.2972 144.576,-53.134 147.941,-45.4078"/>
<polygon fill="black" stroke="black" points="151.241,-46.5827 151.7,-35.9979 144.74,-43.986 151.241,-46.5827"/>
<text text-anchor="middle" x="160.215" y="-56.8" font-family="Times,serif" font-size="14.00">&quot;pop&quot;</text>
</g>
<!-- q0 -->
<g id="node3" class="node"><title>q0</title>
<ellipse fill="red" stroke="black" cx="27" cy="-18" rx="27" ry="18"/>
<text text-anchor="middle" x="27" y="-13.8" font-family="Times,serif" font-size="14.00">q0</text>
</g>
<!-- q1&#45;&gt;q0 -->
<g id="edge4" class="edge"><title>q1&#45;&gt;q0</title>
<path fill="none" stroke="black" d="M65.5126,-96.0036C51.7913,-90.6971 35.8229,-81.8886 27.5771,-68 23.7395,-61.5362 22.4823,-53.697 22.4814,-46.2018"/>
<polygon fill="black" stroke="black" points="25.9875,-46.2301 23.1785,-36.0145 19.0038,-45.7522 25.9875,-46.2301"/>
<text text-anchor="middle" x="51.2114" y="-56.8" font-family="Times,serif" font-size="14.00">&quot;empty&quot;</text>
</g>
<!-- q2&#45;&gt;q1 -->
<g id="edge2" class="edge"><title>q2&#45;&gt;q1</title>
<path fill="none" stroke="black" d="M132.544,-25.8877C118.532,-31.1856 102.014,-40.023 93.1221,-54 89.0792,-60.355 87.4553,-68.1605 87.062,-75.6581"/>
<polygon fill="black" stroke="black" points="83.5652,-75.918 87.2017,-85.8691 90.5645,-75.8221 83.5652,-75.918"/>
<text text-anchor="middle" x="112.939" y="-56.8" font-family="Times,serif" font-size="14.00">&quot;push&quot;</text>
</g>
<!-- q2&#45;&gt;q2 -->
<g id="edge3" class="edge"><title>q2&#45;&gt;q2</title>
<path fill="none" stroke="black" d="M183.795,-21.9288C193.78,-22.0577 202,-20.748 202,-18 202,-16.2825 198.789,-15.1268 193.943,-14.5331"/>
<polygon fill="black" stroke="black" points="193.944,-11.0296 183.795,-14.0712 193.625,-18.0223 193.944,-11.0296"/>
<text text-anchor="middle" x="218.215" y="-13.8" font-family="Times,serif" font-size="14.00">&quot;pop&quot;</text>
</g>
<!-- q2&#45;&gt;q2 -->
<g id="edge6" class="edge"><title>q2&#45;&gt;q2</title>
<path fill="none" stroke="black" d="M182.27,-24.5248C206.221,-27.5988 234.43,-25.4238 234.43,-18 234.43,-11.5911 213.407,-9.09405 192.249,-10.5087"/>
<polygon fill="black" stroke="black" points="191.886,-7.02742 182.27,-11.4752 192.561,-13.9948 191.886,-7.02742"/>
<text text-anchor="middle" x="257.641" y="-13.8" font-family="Times,serif" font-size="14.00">&quot;empty&quot;</text>
</g>
<!-- q0&#45;&gt;q0 -->
<g id="edge7" class="edge"><title>q0&#45;&gt;q0</title>
<path fill="none" stroke="black" d="M51.5325,-25.752C62.5078,-26.4902 72,-23.9062 72,-18 72,-14.0317 67.7151,-11.5632 61.5743,-10.5944"/>
<polygon fill="black" stroke="black" points="61.6472,-7.09491 51.5325,-10.248 61.4059,-14.0908 61.6472,-7.09491"/>
<text text-anchor="middle" x="75.1069" y="-13.8" font-family="Times,serif" font-size="14.00">?</text>
</g>
<!-- start -->
<!-- start&#45;&gt;q2 -->
<g id="edge8" class="edge"><title>start&#45;&gt;q2</title>
<path fill="none" stroke="black" d="M210.339,-85.8615C206.118,-76.0653 200.118,-63.8153 193,-54 189.394,-49.0274 185.045,-44.1403 180.636,-39.6685"/>
<polygon fill="black" stroke="black" points="182.913,-37.0022 173.279,-32.593 178.06,-42.0476 182.913,-37.0022"/>
<text text-anchor="middle" x="222.195" y="-56.8" font-family="Times,serif" font-size="14.00">START</text>
</g>
</g>
</svg>
